<svg xmlns="http://www.w3.org/2000/svg" width="29" height="17" viewBox="0 0 29 17">
    <g fill="#FFF" fill-rule="evenodd">
        <path d="M8.445 13.978c-.128.003-.237 0-.31 0H3.829V9.436h4.862s1.76-.024 1.76 2.334c0 1.988-1.314 2.193-2.006 2.208zM3.83 3.022h4.862s1.181 0 1.181 1.768c0 1.769-.695 2.025-1.482 2.025H3.83V3.022zm7.04 4.74s2.548-.194 2.548-3.236C13.417 1.486 11.332 0 8.691 0H0v17h8.69s5.307.17 5.307-5.018c0 0 .231-4.22-3.128-4.22zM19.756 8.49s.381-2.815 3.111-2.815c2.732 0 2.697 2.814 2.697 2.814h-5.808zM22.799 3c-6.799 0-6.793 7.015-6.793 7.015s-.466 6.98 6.793 6.98c0 0 6.05.357 6.05-4.855h-3.112s.104 1.963-2.835 1.963c0 0-3.111.215-3.111-3.177h9.16S29.956 3 22.8 3z"/>
    </g>
</svg>
