<svg xmlns="http://www.w3.org/2000/svg" width="39" height="39" viewBox="0 0 39 39">
    <g fill="none" fill-rule="evenodd">
        <path fill="#1E1E1E" d="M29.09 13.902c.06.06.001.12.06.18 3.35.481 7.236.305 9.566-2.025.299-.298.359-.837.06-1.136-.3-.3-.839-.36-1.137-.06-2.091 2.09-5.918 1.967-8.908 1.486.06.539.24 1.077.36 1.555zM14.575 30.932c-.06-.897-.3-1.854-.66-2.931-.72-2.273-2.819-9.749.467-13.035l.897-.896.06-.06c.059-.06 1.731-2.091 6.037-1.61.718.121 1.435.242 2.273.481l-.36-1.794c-.658-.18-1.196-.24-1.795-.36-4.964-.543-7.174 1.788-7.472 2.206l-.837.836c-3.763 3.884-1.903 11.599-.824 14.709a11 11 0 0 1 .54 2.572c.422 4.365-1.55 5.978-1.61 6.038-.357.239-.417.776-.178 1.136l.06.06c.3.299.718.359 1.017.06.24 0 2.928-2.09 2.385-7.412z"/>
        <path fill="#1E1E1E" d="M35.13 13.49l-9.695-9.696a.848.848 0 0 1-.001-1.196c.358-.358.837-.358 1.196.001l9.695 9.695c.3.3.36.838 0 1.196a.848.848 0 0 1-1.195 0zM26.824 20.12l-8.02-8.02a.847.847 0 0 1 0-1.196c.358-.358.836-.358 1.195 0l8.08 8.08c.299.3.36.838.001 1.196-.359.359-.897.298-1.256-.06z"/>
        <path fill="#AD0337" d="M20.339 27.08l-5.122-5.122c-.191-.191-.144-.621.215-.98.358-.358.75-.444.98-.215l5.16 5.16c.19.192.143.622-.215.98-.359.359-.789.407-1.018.177zM19.071 19.711L13.95 14.59c-.19-.191-.143-.621.215-.98.359-.358.75-.444.98-.215l5.16 5.16c.192.191.144.622-.215.98-.358.359-.788.406-1.018.177z"/>
        <path fill="#1E1E1E" d="M12.726 35.893L3.03 26.198a.847.847 0 0 1-.001-1.196.848.848 0 0 1 1.196.001l9.695 9.695c.3.3.36.837 0 1.196a.847.847 0 0 1-1.195-.001zM26.042 14.916c.3.898.48 1.794.54 2.572.423 4.365-1.55 5.978-1.609 6.038l-.06.06-.896.896c-2.09 2.09-5.917 1.968-8.908 1.487.18.538.3 1.017.48 1.555.06.06 0 .12.06.18 3.349.48 7.235.305 9.625-2.085l.836-.836c.419-.3 2.75-2.51 2.206-7.473-.06-.897-.3-1.854-.66-2.93-.839-2.154-2.878-9.69.348-13.035.298-.299.358-.837-.06-1.136-.3-.3-.838-.36-1.137.058-3.704 3.824-1.784 11.48-.765 14.65z"/>
        <path fill="#1E1E1E" d="M9.787 24.709c-.658-.18-1.197-.24-1.795-.36C2.67 23.805.58 26.494.46 26.613c-.239.359-.18.777.06 1.017l.06.06c.36.239.838.24 1.137-.179.06-.06 1.732-2.091 6.037-1.609.718.12 1.436.24 2.273.48 0-.478-.12-1.076-.24-1.674z"/>
    </g>
</svg>
