<svg xmlns="http://www.w3.org/2000/svg" width="24" height="24" viewBox="0 0 24 24">
    <path fill="#FFF" fill-rule="evenodd" d="M17.727 20.5c-.105-.62-.65-3.627-1.995-7.32 3.308-.53 6.175.378 6.386.447a10.254 10.254 0 0 1-4.391 6.873zM12 22.248c-2.48 0-4.755-.882-6.528-2.349.135.11.23.18.23.18s1.964-4.285 8.042-6.402l.068-.022c1.442 3.747 2.038 6.885 2.189 7.781-1.23.523-2.582.812-4 .812zM1.752 11.999c0-.11.005-.216.009-.323.18.004 5.244.118 10.52-1.46.294.574.575 1.158.832 1.741a9.9 9.9 0 0 0-.404.123c-5.53 1.787-8.335 6.763-8.335 6.763l.004.005a10.21 10.21 0 0 1-2.626-6.849zm5.876-9.268a61.76 61.76 0 0 1 3.805 5.905c-4.92 1.308-9.191 1.256-9.462 1.251a10.263 10.263 0 0 1 5.657-7.156zm1.918-.681a.007.007 0 0 1-.002.002l-.03.007c.01-.003.021-.005.032-.01zm9.222 2.259c-.025.04-1.484 2.261-5.352 3.711a51.94 51.94 0 0 0-3.831-5.979A10.258 10.258 0 0 1 12 1.752c2.595 0 4.963.967 6.768 2.557zm3.477 7.589c-.148-.032-3.617-.779-7.138-.336a31.388 31.388 0 0 0-.902-2.016c4.047-1.651 5.69-4.027 5.71-4.055a10.2 10.2 0 0 1 2.33 6.407zm1.51-2.314a11.966 11.966 0 0 0-3.27-6.068A11.98 11.98 0 0 0 12 0 12.06 12.06 0 0 0 7.33.944a11.97 11.97 0 0 0-3.815 2.572 12.063 12.063 0 0 0-2.57 3.813A11.967 11.967 0 0 0 0 11.999a11.936 11.936 0 0 0 2.05 6.711c.43.636.922 1.232 1.464 1.775.543.543 1.14 1.035 1.776 1.464A11.966 11.966 0 0 0 12 24a11.97 11.97 0 0 0 8.485-3.515A11.951 11.951 0 0 0 24 12c0-.813-.082-1.626-.244-2.415z"/>
</svg>
