<svg xmlns="http://www.w3.org/2000/svg" width="290" height="160" viewBox="0 0 290 160">
    <path fill="#FFF" fill-rule="evenodd" d="M187.956 86.833c.322 1.337-.054.583 0 0m9.223-8.664c-.087.047-.153.019-.205-.067.192-.004.312.009.205.067m-36.799-5.576c-.983-5.229 5.943-10.881 10.559-7.033.267.223.17.112.117.52-.039.298-.825 1.592-1.242 2.147-2.123 2.82-4.961 5.23-8.025 7.385-.696-.88-1.2-1.91-1.409-3.019M90.146 101.24c-11.208-6.304-13.842-21.695-12.642-33.363 2.879-27.986 26.555-47.479 51.167-57.232 5.523-2.189 12.266-4.963 18.28-3.33 7.047 1.914 7.755 9.342 6.412 15.403-1.364 6.154-4.289 11.878-7.04 17.507a276.662 276.662 0 0 1-8.722 16.433c-9.622 16.74-21.04 32.464-34.211 46.575-4.643.66-9.193.285-13.244-1.993m104.17-18.74c1.493-.906 2.973-1.835 4.34-2.912 1.868-1.471 3.811-4 1.647-6.213-2.13-2.178-6.808-1.003-9.382-.655-6.175.833-12.3 2.23-18.244 4.095-1.618.507-3.23 1.206-4.884 1.395 4.38-3.375 11.807-9.514 8.416-15.447-2.207-3.862-7.86-4.782-11.797-3.855-5.592 1.317-10.069 6.521-10.108 12.337-.02 2.744.915 5.404 2.5 7.593-1.838 1.113-3.667 2.167-5.391 3.187-8.406 4.967-17.148 9.396-26.066 13.368-3.432 1.53-7.331 3.38-11.403 4.929a256.52 256.52 0 0 0 15.44-19.74c8.828-12.503 16.552-25.781 23.149-39.59 5.016-10.5 13.224-27.662 1.366-36.765-11.239-8.627-29.267 1.044-39.782 6.626-13.585 7.213-25.942 17.443-33.826 30.8-7.71 13.064-11.236 29.084-7.493 43.987 3.113 12.395 12.026 22.763 24.762 23.625a226.179 226.179 0 0 1-7.02 6.704c-9.357 8.555-19.45 16.278-30.221 22.972-10.793 6.707-24.189 15.552-37.43 14.414-14.593-1.253-19.074-15.925-15.936-28.391C9.955 113.04 18.652 103.088 29.57 97.64c2.415-1.204 5.464-2.811 8.253-2.24 2.836.581 6.552-4.975.57-5.9-6.135-.95-12.985 3.196-17.802 6.575C9.332 103.972 1.143 116.468.096 130.357c-1.066 14.126 6.797 27.107 21.572 28.812 15.345 1.771 30.806-8.207 43.215-16.08 15.312-9.714 29.216-21.439 41.654-34.576 10.785-2.111 21.513-7.63 31.14-12.367 8.1-3.985 16.199-8.272 23.722-13.336.424.219.856.422 1.305.59 6.382 2.397 13.398-1.594 19.602-3.049a113.94 113.94 0 0 1 6.25-1.296c-.489.303-.98.601-1.462.917-2.155 1.411-5.88 3.718-4.086 6.817.78 1.348 2.117 1.608 3.531 1.733 5.065.448 10.439-.106 15.516-.284 19.139-.667 38.218-2.46 57.241-4.61 9.261-1.047 18.512-2.18 27.763-3.313 3.747-.46 3.794-6.405 0-5.941-30.8 3.773-61.683 7.554-92.743 8.125z"/>
</svg>
