<svg xmlns="http://www.w3.org/2000/svg" width="24" height="24" viewBox="0 0 24 24">
    <g fill="#FFF" fill-rule="evenodd">
        <path d="M12 14.853A3.857 3.857 0 0 1 8.147 11 3.857 3.857 0 0 1 12 7.147 3.857 3.857 0 0 1 15.853 11 3.857 3.857 0 0 1 12 14.853zM12 5c-3.308 0-6 2.692-6 6s2.692 6 6 6 6-2.692 6-6-2.692-6-6-6zM19.5 4a1.5 1.5 0 1 0 0 3 1.5 1.5 0 0 0 0-3"/>
        <path d="M21.79 16.983c0 1.476-.453 2.7-1.311 3.537-.852.832-2.08 1.27-3.55 1.27H7.071c-1.436 0-2.65-.442-3.513-1.279-.883-.857-1.35-2.096-1.35-3.583V7.017c0-1.466.447-2.685 1.294-3.527.842-.838 2.058-1.28 3.514-1.28h9.966c1.447 0 2.662.453 3.514 1.31.846.854 1.294 2.062 1.294 3.497v9.966zm.275-15.019C20.789.68 19.032 0 16.983 0H7.017C2.82 0 0 2.82 0 7.017v9.911c0 2.098.699 3.885 2.02 5.168C3.303 23.342 5.05 24 7.072 24h9.856c2.06 0 3.822-.656 5.094-1.9C23.316 20.838 24 19.069 24 16.984V7.017c0-2.03-.669-3.777-1.935-5.053z"/>
    </g>
</svg>
