<svg xmlns="http://www.w3.org/2000/svg" width="87" height="87" viewBox="0 0 87 87">
    <g fill="none" fill-rule="evenodd" opacity=".5">
        <path stroke="#E5E7E8" stroke-width="2" d="M1 1h85v85H1z"/>
        <path fill="#AD0337" d="M87 85v2H77v-2h8v-8h2v8zM0 2V0h10v2H2v8H0V2z"/>
        <g>
            <path fill="#1E1E1E" d="M47.906 51.614h-8.812a.976.976 0 0 1-.847-.49L33.84 43.49a.986.986 0 0 1 0-.98l4.406-7.635a.98.98 0 0 1 .847-.49h8.812c.35 0 .673.187.847.49l4.406 7.635a.973.973 0 0 1 0 .98l-4.406 7.635a.976.976 0 0 1-.847.49zm-8.247-1.959h7.682L51.18 43l-3.84-6.655h-7.682L35.82 43l3.84 6.655z"/>
            <path fill="#AD0337" stroke="#DF1653" stroke-width=".5" d="M40.243 39.136c0-.46.303-.837.673-.837h5.377c.37 0 .672.376.672.837 0 .46-.303.837-.672.837h-5.377c-.372 0-.673-.377-.673-.837z"/>
            <path fill="#1E1E1E" d="M34.688 43.98H25.74a.979.979 0 1 1 0-1.96h8.948a.979.979 0 1 1 0 1.96z"/>
            <path fill="#1E1E1E" d="M23.358 46.362A3.365 3.365 0 0 1 20 43a3.363 3.363 0 0 1 3.358-3.36 3.363 3.363 0 0 1 3.36 3.36 3.362 3.362 0 0 1-3.36 3.362zm0-4.762a1.402 1.402 0 1 0 .004 2.803 1.402 1.402 0 0 0-.004-2.803zM61.262 43.98h-8.95a.979.979 0 1 1 0-1.96h8.95a.979.979 0 1 1 0 1.96z"/>
            <path fill="#1E1E1E" d="M63.64 46.362a3.362 3.362 0 0 1 0-6.721A3.363 3.363 0 0 1 67 43a3.365 3.365 0 0 1-3.36 3.362zm0-4.762c-.772 0-1.401.629-1.401 1.4 0 .774.629 1.403 1.4 1.403a1.402 1.402 0 0 0 0-2.803zM39.108 36.34a.98.98 0 0 1-.849-.49l-4.462-7.757a.98.98 0 0 1 1.696-.978l4.463 7.758a.98.98 0 0 1-.848 1.467z"/>
            <path fill="#1E1E1E" d="M33.456 28.898a3.363 3.363 0 0 1-3.359-3.36 3.364 3.364 0 0 1 3.36-3.36 3.363 3.363 0 0 1 3.358 3.36 3.361 3.361 0 0 1-3.359 3.36zm0-4.763a1.402 1.402 0 0 0 0 2.802 1.402 1.402 0 0 0 0-2.802zM52.357 59.38a.979.979 0 0 1-.85-.49l-4.463-7.76a.98.98 0 0 1 1.696-.977l4.463 7.76a.98.98 0 0 1-.846 1.466z"/>
            <path fill="#1E1E1E" d="M53.541 63.824a3.363 3.363 0 0 1-3.358-3.36 3.363 3.363 0 0 1 3.358-3.36 3.365 3.365 0 0 1 3.362 3.36 3.364 3.364 0 0 1-3.362 3.36zm0-4.763a1.402 1.402 0 1 0 .003 2.803 1.402 1.402 0 0 0-.003-2.803zM47.943 36.369a.977.977 0 0 1-.845-1.474l4.514-7.728a.981.981 0 0 1 1.34-.353.976.976 0 0 1 .35 1.34l-4.514 7.728a.97.97 0 0 1-.845.487z"/>
            <path fill="#1E1E1E" d="M53.659 28.964a3.365 3.365 0 0 1-3.36-3.36 3.363 3.363 0 0 1 3.36-3.359 3.365 3.365 0 0 1 3.36 3.36 3.363 3.363 0 0 1-3.36 3.359zm0-4.76c-.773 0-1.403.63-1.403 1.4a1.402 1.402 0 0 0 2.805 0c0-.773-.629-1.4-1.402-1.4zM34.54 59.32a.98.98 0 0 1-.845-1.474l4.515-7.728a.98.98 0 0 1 1.691.987l-4.513 7.728a.975.975 0 0 1-.847.487z"/>
            <path fill="#1E1E1E" d="M33.341 63.755a3.363 3.363 0 0 1-3.358-3.36 3.363 3.363 0 0 1 3.358-3.359 3.363 3.363 0 0 1 3.358 3.36 3.361 3.361 0 0 1-3.358 3.359zm0-4.76a1.402 1.402 0 0 0 0 2.8 1.402 1.402 0 0 0 0-2.8z"/>
        </g>
    </g>
</svg>
