<svg xmlns="http://www.w3.org/2000/svg" width="26" height="22" viewBox="0 0 26 22">
    <path fill="#FFF" fill-rule="evenodd" d="M26 2.604c-.956.442-1.984.74-3.064.874A5.53 5.53 0 0 0 25.282.406a10.435 10.435 0 0 1-3.387 1.348C20.922.674 19.535 0 18.002 0c-2.947 0-5.335 2.487-5.335 5.554 0 .435.047.859.138 1.265C8.372 6.588 4.441 4.377 1.81 1.017a5.7 5.7 0 0 0-.722 2.792c0 1.927.942 3.626 2.373 4.623a5.154 5.154 0 0 1-2.416-.696v.07c0 2.691 1.838 4.936 4.279 5.446a5.143 5.143 0 0 1-2.41.095c.68 2.207 2.65 3.813 4.983 3.857A10.436 10.436 0 0 1 0 19.504 14.67 14.67 0 0 0 8.177 22c9.812 0 15.177-8.463 15.177-15.802 0-.24-.005-.48-.015-.719A11.092 11.092 0 0 0 26 2.604"/>
</svg>
