<svg xmlns="http://www.w3.org/2000/svg" width="87" height="87" viewBox="0 0 87 87">
    <g fill="none" fill-rule="evenodd" opacity=".5">
        <path stroke="#E5E7E8" stroke-width="2" d="M1 1h85v85H1z"/>
        <path fill="#AD0337" d="M87 85v2H77v-2h8v-8h2v8zM0 2V0h10v2H2v8H0V2z"/>
        <g stroke-width=".5">
            <path fill="#AD0337" stroke="#DF1653" d="M34.26 43.206l-6.723 4.082a.684.684 0 0 0-.328.585v8.165c0 .379.301.683.673.683a.676.676 0 0 0 .672-.683v-7.78l6.398-3.885a.684.684 0 0 0 .23-.933.667.667 0 0 0-.922-.234"/>
            <path fill="#1E1E1E" stroke="#000" d="M61.641 56.48l-8.77 5.081-8.699-3.773V46.38l8.741-5.056 8.742 5.056-.014 10.1zm-18.827 1.308l-8.686 3.773-8.783-5.08V46.38l8.742-5.056 5.826 3.37 2.915 1.686-.014 11.408zM43.5 24.99l8.74 5.056-.012 10.1-8.728 5.056-6.557-3.791-2.184-1.265v-10.1L43.5 24.99zm19.161 20.405l-9.088-5.257.014-10.485a.684.684 0 0 0-.34-.592l-9.414-5.444a.655.655 0 0 0-.666 0l-9.415 5.444a.684.684 0 0 0-.339.59v10.495l-9.074 5.25a.684.684 0 0 0-.339.59v10.89c0 .242.13.468.339.59l9.413 5.443a.674.674 0 0 0 .6.036l9.142-3.97 9.155 3.97a.665.665 0 0 0 .599-.036l9.4-5.444a.686.686 0 0 0 .338-.59L63 45.985a.684.684 0 0 0-.339-.59z"/>
            <path fill="#AD0337" stroke="#DF1653" d="M53.088 43.206l-6.724 4.082a.684.684 0 0 0-.327.585v8.848c0 .376.3.68.672.68a.676.676 0 0 0 .673-.68V48.26l6.398-3.886a.684.684 0 0 0 .23-.933.667.667 0 0 0-.922-.234M37.296 40.387c.37 0 .673-.304.673-.68v-7.782l6.396-3.886a.684.684 0 0 0 .232-.933.668.668 0 0 0-.922-.235l-6.726 4.085a.682.682 0 0 0-.325.582v8.168c0 .377.3.68.672.68"/>
        </g>
    </g>
</svg>
