<svg xmlns="http://www.w3.org/2000/svg" width="87" height="87" viewBox="0 0 87 87">
    <g fill="none" fill-rule="evenodd" opacity=".5">
        <path stroke="#E5E7E8" stroke-width="2" d="M1 1h85v85H1z"/>
        <path fill="#AD0337" d="M87 85v2H77v-2h8v-8h2v8zM0 2V0h10v2H2v8H0V2z"/>
        <g stroke-width=".5">
            <path fill="#1E1E1E" stroke="#1E1E1E" d="M43.856 55.895a.817.817 0 0 1-.44-.125L33.14 49.504a.861.861 0 0 1-.415-.736V36.234c0-.301.156-.581.411-.736l10.274-6.268a.845.845 0 0 1 .888 0l10.274 6.268c.26.157.413.435.413.736v12.534c0 .3-.154.579-.41.736L44.3 55.77a.87.87 0 0 1-.445.123v.002zm-9.418-7.611l9.418 5.74 9.418-5.74V36.719l-9.418-5.745-9.418 5.745v11.565z"/>
            <path fill="#1E1E1E" stroke="#1E1E1E" d="M54.13 37.097a.86.86 0 0 1-.47-1.578l7.705-5.129a.854.854 0 0 1 1.186.246.865.865 0 0 1-.245 1.19l-7.705 5.13a.838.838 0 0 1-.471.141zM24.164 55.895a.86.86 0 0 1-.715-.388.864.864 0 0 1 .245-1.193l9.417-6.265a.852.852 0 0 1 1.186.246.862.862 0 0 1-.244 1.19l-9.418 6.265a.8.8 0 0 1-.47.145zM33.088 37.097a.854.854 0 0 1-.424-.112l-8.923-5.126a.868.868 0 0 1-.321-1.176.862.862 0 0 1 1.17-.323l8.924 5.13a.868.868 0 0 1 .32 1.175.863.863 0 0 1-.746.434v-.002z"/>
            <path fill="#AD0337" stroke="#DF1653" d="M50.157 47.285a.861.861 0 0 1-.856-.861v-6.888a.86.86 0 0 1 .856-.86c.471 0 .857.387.857.86v6.888a.86.86 0 0 1-.857.861z"/>
        </g>
    </g>
</svg>
